<?xml version="1.0" standalone="no"?>
<!DOCTYPE svg PUBLIC "-//W3C//DTD SVG 20010904//EN"
 "http://www.w3.org/TR/2001/REC-SVG-20010904/DTD/svg10.dtd">
<svg version="1.0" xmlns="http://www.w3.org/2000/svg"
 width="40.000000pt" height="42.000000pt" viewBox="0 0 1148.000000 1280.000000"
 preserveAspectRatio="xMidYMid meet">
<metadata>
Created by potrace 1.15, written by Peter Selinger 2001-2017
</metadata>
<g transform="translate(0.000000,1280.000000) scale(0.100000,-0.100000)"
fill="#07070a" stroke="none">
<path d="M4915 12424 c-456 -206 -1212 -548 -1680 -759 -467 -211 -1295 -584
-1840 -830 -545 -246 -1077 -486 -1182 -533 l-193 -87 0 -302 0 -303 5730 0
5730 0 0 303 0 302 -143 64 c-78 35 -513 231 -967 436 -454 205 -1216 549
-1695 765 -478 216 -1149 518 -1490 672 -936 423 -1436 648 -1438 647 -1 0
-375 -169 -832 -375z"/>
<path d="M800 5775 l0 -3785 625 0 625 0 0 3785 0 3785 -625 0 -625 0 0 -3785z"/>
<path d="M3007 9553 c-4 -3 -7 -1707 -7 -3785 l0 -3778 625 0 625 0 0 3785 0
3785 -618 0 c-340 0 -622 -3 -625 -7z"/>
<path d="M5210 9555 c0 -3 0 -1705 0 -3782 l0 -3778 620 -3 620 -2 0 3785 0
3785 -620 0 c-341 0 -620 -2 -620 -5z"/>
<path d="M7410 5775 l0 -3785 623 2 622 3 0 3780 0 3780 -622 3 -623 2 0
-3785z"/>
<path d="M9610 5775 l0 -3785 625 0 625 0 0 3785 0 3785 -625 0 -625 0 0
-3785z"/>
<path d="M0 1615 l0 -305 5730 0 5730 0 0 305 0 305 -5730 0 -5730 0 0 -305z"/>
<path d="M0 960 l0 -300 5730 0 5730 0 0 300 0 300 -5730 0 -5730 0 0 -300z"/>
<path d="M0 305 l0 -305 5730 0 5730 0 0 305 0 305 -5730 0 -5730 0 0 -305z"/>
</g>
</svg>
