<?xml version="1.0" encoding="utf-8"?>
<!-- Generator: Adobe Illustrator 16.0.0, SVG Export Plug-In . SVG Version: 6.00 Build 0)  -->
<!DOCTYPE svg PUBLIC "-//W3C//DTD SVG 1.1//EN" "http://www.w3.org/Graphics/SVG/1.1/DTD/svg11.dtd">
<svg version="1.1" id="Layer_1" xmlns="http://www.w3.org/2000/svg" xmlns:xlink="http://www.w3.org/1999/xlink" x="0px" y="0px"
	 width="128px" height="128px" viewBox="0 0 128 128" enable-background="new 0 0 128 128" xml:space="preserve">
<g>
	<g>
		<g>
			<g>
				<path fill="#ffffff" d="M71.308,99.492c-0.986,0-1.966-0.233-2.872-0.694l-5.669-2.862c-0.214-0.069-0.425-0.146-0.634-0.223
					l-3.617-1.336l3.175-2.188c0.352-0.241,0.623-0.553,0.808-0.926l1.552-3.127c0.596-1.204,0.11-2.678-1.082-3.28
					c-0.564-0.286-1.208-0.334-1.81-0.133c-0.609,0.203-1.103,0.635-1.39,1.216l-1.545,3.12c-0.193,0.394-0.277,0.816-0.246,1.252
					l0.254,3.521l-9.319-4.709l2.9-1.896c0.362-0.237,0.645-0.555,0.837-0.945l4.515-9.108c0.596-1.209,0.114-2.687-1.075-3.289
					c-0.563-0.283-1.203-0.33-1.805-0.131c-0.61,0.203-1.105,0.636-1.394,1.217l-4.509,9.112c-0.194,0.389-0.279,0.818-0.248,1.246
					l0.253,3.521l-9.32-4.709l2.903-1.897c0.354-0.231,0.642-0.557,0.831-0.94l3.658-7.381c0.596-1.208,0.115-2.68-1.073-3.28
					c-0.567-0.287-1.207-0.334-1.805-0.137c-0.61,0.203-1.104,0.636-1.393,1.22l-3.657,7.377c-0.19,0.385-0.274,0.815-0.243,1.246
					l0.25,3.517l-9.692-4.89l2.873-1.902c0.374-0.247,0.66-0.567,0.849-0.95l1.546-3.125c0.6-1.207,0.12-2.678-1.068-3.281
					c-0.566-0.286-1.209-0.335-1.81-0.135c-0.608,0.202-1.103,0.635-1.391,1.219l-1.546,3.12c-0.188,0.38-0.273,0.79-0.254,1.219
					l0.182,3.91l-3.274-2.143c-1.304-0.853-2.422-1.929-3.325-3.197l3.26-2.32c0.039,0.056,0.079,0.11,0.12,0.165l1.252-2.528
					c0.765-1.548,2.084-2.698,3.713-3.241c1.62-0.538,3.354-0.41,4.882,0.363c1.831,0.929,3.027,2.631,3.396,4.516l0.354-0.713
					c0.765-1.547,2.085-2.699,3.716-3.241c1.62-0.541,3.352-0.409,4.874,0.363c1.788,0.903,2.973,2.549,3.371,4.383
					c0.687-0.672,1.52-1.185,2.457-1.496c1.62-0.541,3.352-0.414,4.874,0.356c3.139,1.59,4.419,5.462,2.855,8.632l-1.008,2.033
					c0.05-0.018,0.101-0.035,0.151-0.052c1.62-0.542,3.354-0.414,4.879,0.356c3.145,1.591,4.428,5.46,2.861,8.628l-1.552,3.127
					c-0.012,0.023-0.023,0.047-0.036,0.07l4.199,2.119c0.567,0.29,1.205,0.338,1.802,0.141c0.61-0.202,1.107-0.635,1.397-1.219
					c0.414-0.838,0.313-1.865-0.258-2.611l-0.922-1.204l0.91-1.213c0.179-0.238,0.362-0.523,0.563-0.871l0.943-1.646l5.421,2.739
					c0.564,0.285,1.208,0.332,1.809,0.132c0.608-0.203,1.103-0.634,1.39-1.214c0.596-1.21,0.114-2.686-1.075-3.286l-5.468-2.775
					l2.172-4.344l10.478,5.306c0.563,0.284,1.207,0.329,1.809,0.13c0.608-0.203,1.101-0.636,1.387-1.215
					c0.604-1.215,0.123-2.688-1.067-3.289l-10.391-5.254l0.719-1.717c0.091-0.218,0.161-0.438,0.232-0.657l0.72-2.227l14.854,7.517
					c0.563,0.286,1.198,0.334,1.797,0.136c0.612-0.203,1.109-0.637,1.398-1.222c0.6-1.21,0.119-2.682-1.07-3.284l-21.8-11.033
					c-1.11-0.066-2.233-0.224-3.346-0.469c-4.327-0.966-8.187-3.252-10.771-6.347l-6.078,0.68l-0.038,0.205
					c-0.522,2.579-1.997,4.773-4.159,6.203c-2.138,1.413-4.695,1.909-7.199,1.394l-2.49-0.514c-0.143-0.033-0.229-0.057-0.314-0.081
					l-1.843-0.472l0.293-1.888l3.332-16.404l12.229-2.549l6.009-1.168l2.345,0.524l-0.19-0.609l-9.804-0.99l-5.202-0.448
					l-17.7,5.955l-1.275-3.792l18.489-6.221l6.062,0.523l12.474,1.303l3.037,9.696l-8.292-1.855l-5.16,1.004l-9.624,2.005
					L46.362,58.62l0.847,0.177c1.454,0.298,2.941,0.011,4.186-0.813c1.269-0.839,2.136-2.13,2.439-3.635l0.583-3.083l11.296-1.265
					l0.683,0.956c1.991,2.783,5.314,4.867,9.12,5.716c1.023,0.227,2.061,0.36,3.078,0.399l0.437,0.017L101.6,68.514
					c3.142,1.589,4.421,5.459,2.85,8.628c-0.767,1.549-2.09,2.701-3.726,3.243c-1.279,0.425-2.628,0.433-3.887,0.035
					c0.1,1.146-0.103,2.332-0.65,3.435c-0.76,1.539-2.076,2.689-3.705,3.233c-1.621,0.543-3.355,0.415-4.88-0.354l-0.067-0.034
					c0.082,1.115-0.121,2.265-0.648,3.336c-0.765,1.547-2.082,2.695-3.709,3.237c-1.621,0.54-3.354,0.415-4.878-0.355l-0.622-0.313
					c0.08,1.13-0.132,2.281-0.647,3.324c-0.772,1.553-2.096,2.703-3.728,3.241C72.647,99.385,71.977,99.492,71.308,99.492z"/>
			</g>
			<g>
				<g>
					<path fill="#ffffff" d="M100.357,72.36L77.996,61.05c-0.076-0.005-0.153-0.01-0.229-0.015l-0.287-0.019
						c-0.287-0.026-0.58-0.058-0.872-0.095l-0.093-0.012c-0.252-0.033-0.521-0.076-0.798-0.122l-0.163-0.029
						c-0.283-0.048-0.599-0.108-0.919-0.181c-0.292-0.066-0.581-0.139-0.871-0.212l-0.532-0.156
						c-0.132-0.038-0.266-0.076-0.398-0.12c-0.119-0.036-0.263-0.087-0.412-0.141l-0.114-0.038c-0.105-0.035-0.213-0.07-0.317-0.108
						l-0.807-0.313c-0.229-0.098-0.416-0.178-0.603-0.263l0.701-1.878l-0.794,1.836l-0.135-0.06
						c-0.117-0.055-0.235-0.112-0.351-0.169l-0.477-0.241c-0.165-0.08-0.397-0.207-0.626-0.341v0.001
						c-0.006,0-0.068-0.035-0.129-0.071c-0.154-0.087-0.356-0.212-0.56-0.338v-0.001c-0.067-0.037-0.132-0.078-0.194-0.122
						c-1.443-0.933-3.157-2.595-4.107-3.565l-6.11,0.645l-0.036,0.195c-0.522,2.579-1.998,4.773-4.16,6.203
						c-2.137,1.414-4.694,1.908-7.198,1.394l-2.49-0.514c-0.143-0.033-0.229-0.057-0.314-0.081l-1.843-0.472l0.293-1.888
						l3.328-16.387l1.39-0.309l16.712-3.454l19.75,4.408l13.101-4.406l1.275,3.792l-14.159,4.763l-19.999-4.466l-14.67,3.033
						l-2.413,11.885l0.847,0.177c1.454,0.298,2.94,0.011,4.186-0.813c1.269-0.839,2.136-2.129,2.439-3.635l0.585-3.092l11.041-1.164
						l0.681,0.734c0.687,0.74,2.761,2.846,4.092,3.687l0.06,0.037c0.202,0.126,0.349,0.218,0.503,0.305
						c0.013,0.006,0.064,0.033,0.113,0.062c0.159,0.093,0.313,0.178,0.47,0.256c0.077,0.038,0.139,0.07,0.192,0.1l0.452,0.219
						c0.12,0.053,0.189,0.083,0.258,0.116c0.109,0.049,0.267,0.117,0.423,0.184l0.98,0.363c0.178,0.063,0.266,0.096,0.354,0.123
						l0.467,0.138c0.043,0.011,0.136,0.039,0.23,0.069c0.266,0.07,0.523,0.134,0.786,0.193c0.251,0.058,0.498,0.104,0.752,0.147
						c0.325,0.055,0.552,0.092,0.783,0.122l0.053,0.007c0.232,0.029,0.467,0.055,0.696,0.076l0.219,0.015
						c0.184,0.012,0.367,0.023,0.547,0.029l0.447,0.013l21.649,10.95l5.136-1.726l1.273,3.792L100.357,72.36z"/>
				</g>
				<g>
					<path fill="#ffffff" d="M60.354,96.599L60.354,96.599c-0.986,0-1.976-0.235-2.86-0.683c-3.141-1.59-4.42-5.462-2.854-8.633
						l1.545-3.12c1.087-2.199,3.281-3.564,5.725-3.564c0.989,0,1.979,0.236,2.865,0.686c3.145,1.587,4.429,5.457,2.861,8.626
						l-1.552,3.126C64.99,95.234,62.796,96.599,60.354,96.599z M61.908,84.6c-0.911,0-1.731,0.513-2.139,1.338l-1.545,3.119
						c-0.598,1.21-0.116,2.688,1.074,3.29c1.15,0.58,2.623,0.072,3.202-1.091l1.55-3.121c0.596-1.205,0.111-2.678-1.081-3.28
						C62.634,84.685,62.277,84.6,61.908,84.6z"/>
				</g>
				<g>
					<path fill="#ffffff" d="M30.428,81.46L30.428,81.46c-0.985,0-1.975-0.236-2.859-0.682c-3.149-1.587-4.43-5.462-2.853-8.638
						l1.543-3.116c1.087-2.2,3.279-3.566,5.721-3.566c0.991,0,1.985,0.238,2.875,0.69c3.139,1.588,4.415,5.458,2.845,8.624
						l-1.544,3.121C35.071,80.092,32.876,81.46,30.428,81.46z M31.979,69.459c-0.908,0-1.727,0.514-2.135,1.34L28.3,73.918
						c-0.603,1.213-0.123,2.688,1.069,3.288c1.159,0.584,2.628,0.074,3.199-1.084l1.546-3.126c0.6-1.207,0.12-2.678-1.067-3.279
						C32.709,69.546,32.35,69.459,31.979,69.459z"/>
				</g>
				<g>
					<path fill="#ffffff" d="M50.511,91.622L50.511,91.622c-0.988,0-1.979-0.238-2.865-0.689c-3.145-1.593-4.423-5.465-2.847-8.631
						l4.508-9.107c1.089-2.199,3.284-3.564,5.728-3.564c0.986,0,1.976,0.236,2.861,0.684c3.138,1.59,4.418,5.462,2.855,8.631
						l-4.515,9.11C55.147,90.254,52.953,91.622,50.511,91.622z M55.034,73.63c-0.912,0-1.733,0.513-2.143,1.339l-4.509,9.112
						c-0.603,1.209-0.12,2.68,1.073,3.284c1.165,0.591,2.621,0.074,3.195-1.086l4.514-9.107c0.596-1.208,0.114-2.687-1.075-3.289
						C55.759,73.715,55.402,73.63,55.034,73.63z"/>
				</g>
				<g>
					<path fill="#ffffff" d="M40.669,86.64L40.669,86.64c-0.989,0-1.982-0.239-2.87-0.691c-3.134-1.584-4.414-5.452-2.852-8.62
						l3.657-7.379c1.087-2.199,3.278-3.566,5.72-3.566c0.989,0,1.982,0.238,2.871,0.689c3.136,1.58,4.418,5.449,2.852,8.623
						l-3.657,7.378C45.301,85.272,43.108,86.64,40.669,86.64z M44.324,70.384c-0.908,0-1.726,0.513-2.134,1.339l-3.657,7.378
						c-0.595,1.206-0.113,2.679,1.075,3.279c1.171,0.596,2.62,0.079,3.196-1.084l3.656-7.375c0.597-1.208,0.116-2.68-1.071-3.278
						C45.049,70.47,44.692,70.384,44.324,70.384z"/>
				</g>
			</g>
		</g>
	</g>
	<g>
		<g>
			<path fill="ffffff" d="M107.35,77.238L94.454,38.089l20.65-8.601L128,68.649L107.35,77.238z M99.414,40.357l10.385,31.528
				l13.241-5.507l-10.386-31.537L99.414,40.357z"/>
		</g>
	</g>
	<g>
		<path fill="#ffffff" d="M22.114,80.688L0,72.547l14.503-44.039l22.109,8.141L22.114,80.688z M5.008,70.129l14.601,5.375
			l11.995-36.437l-14.597-5.375L5.008,70.129z"/>
	</g>
	<g>
		
			<rect x="13.07" y="65.501" transform="matrix(0.9477 0.319 -0.319 0.9477 22.3434 -1.4112)" fill="#ffffff" width="4.818" height="4.001"/>
	</g>
	<g>
		
			<rect x="111.509" y="62.724" transform="matrix(0.312 0.9501 -0.9501 0.312 139.6438 -63.2673)" fill="#ffffff" width="4" height="4.133"/>
	</g>
</g>
</svg>
