<?xml version="1.0" encoding="utf-8"?>
<!-- Generator: Adobe Illustrator 16.0.0, SVG Export Plug-In . SVG Version: 6.00 Build 0)  -->
<!DOCTYPE svg PUBLIC "-//W3C//DTD SVG 1.0//EN" "http://www.w3.org/TR/2001/REC-SVG-20010904/DTD/svg10.dtd">
<svg version="1.0" id="Layer_1" xmlns="http://www.w3.org/2000/svg" xmlns:xlink="http://www.w3.org/1999/xlink" x="0px" y="0px"
	 width="128px" height="128px" viewBox="0 0 100 100" fill="#ffffff" xml:space="preserve">
<polygon points="37.39,42.586 51.533,56.727 75.104,33.16 60.964,19.012 "/>
<path d="M82.175,40.23l-3.535-3.535L55.071,60.262l3.535,3.535c2.592,2.592,6.833,2.592,9.428,0l14.141-14.14
	C84.769,47.066,84.769,42.821,82.175,40.23z"/>
<path d="M57.429,15.477l-3.539-3.535c-2.591-2.591-6.836-2.591-9.43,0L30.319,26.089c-2.592,2.591-2.592,6.829,0,9.427l3.535,3.535
	L57.429,15.477z"/>
<path d="M37.39,49.657L11.465,75.582c-1.953,1.953-1.953,5.117,0,7.07c1.95,1.953,5.117,1.953,7.07,0L44.46,56.727L37.39,49.657z"/>
<rect x="43.333" y="83.336" width="46.667" height="6.666"/>
<path d="M50,80.002c0-3.666,3.001-6.666,6.667-6.666h20c3.665,0,6.666,3,6.666,6.666H50z"/>
</svg>
