<?xml version="1.0" encoding="utf-8"?>
<!-- Generator: Adobe Illustrator 16.0.0, SVG Export Plug-In . SVG Version: 6.00 Build 0)  -->
<!DOCTYPE svg PUBLIC "-//W3C//DTD SVG 1.1//EN" "http://www.w3.org/Graphics/SVG/1.1/DTD/svg11.dtd">
<svg version="1.1" id="Layer_1" xmlns="http://www.w3.org/2000/svg" xmlns:xlink="http://www.w3.org/1999/xlink" x="0px" y="0px"
	 width="128px" height="128px" viewBox="0 0 128 128" enable-background="new 0 0 128 128" xml:space="preserve">
<g>
	<g>
		<path fill="#ffffff" d="M77.301,64.671h-2.602v-4h2.602V64.671z M70.699,64.671h-4v-4h4V64.671z M62.699,64.671h-4v-4h4V64.671z
			 M54.699,64.671h-4v-4h4V64.671z"/>
	</g>
	<g>
		<g>
			<path fill="#ffffff" d="M25.298,73.279h-6.726c-11.19,0-18.421-8.521-18.421-21.709V33.933h4V51.57
				c0,8.562,3.789,17.709,14.421,17.709h6.726V73.279z"/>
		</g>
		<g>
			<path fill="#ffffff" d="M109.428,73.279h-6.791v-4h6.791c10.645,0,14.422-9.61,14.422-17.84V33.801h4v17.639
				C127.85,64.502,120.446,73.279,109.428,73.279z"/>
		</g>
	</g>
	<g>
		<g>
			<g>
				<g>
					<rect x="37.118" y="28.455" fill="#ffffff" width="4" height="30.398"/>
				</g>
				<g>
					<rect x="26.567" y="28.455" fill="#ffffff" width="4" height="30.398"/>
				</g>
			</g>
			<g>
				<g>
					<rect x="37.118" y="83.508" fill="#ffffff" width="4" height="30.398"/>
				</g>
				<g>
					<rect x="26.567" y="83.508" fill="#ffffff" width="4" height="30.398"/>
				</g>
			</g>
			<g>
				<path fill="#ffffff" d="M40.162,86.107H27.524c-2.276,0-4.128-1.864-4.128-4.156V61.658c0-2.29,1.852-4.154,4.128-4.154h12.638
					c2.275,0,4.126,1.864,4.126,4.154v20.293C44.288,84.243,42.437,86.107,40.162,86.107z M27.524,61.504
					c-0.07,0-0.128,0.069-0.128,0.154v20.293c0,0.088,0.056,0.156,0.128,0.156h12.638c0.061,0,0.126-0.06,0.126-0.156V61.658
					c0-0.092-0.065-0.154-0.126-0.154H27.524z"/>
			</g>
			<g>
				<rect x="31.843" y="75.555" fill="#ffffff" width="4" height="7.213"/>
			</g>
		</g>
		<g>
			<g>
				<g>
					<rect x="97.434" y="28.455" fill="#ffffff" width="4" height="30.398"/>
				</g>
				<g>
					<rect x="86.884" y="28.455" fill="#ffffff" width="4" height="30.398"/>
				</g>
			</g>
			<g>
				<g>
					<rect x="97.434" y="83.508" fill="#ffffff" width="4" height="30.398"/>
				</g>
				<g>
					<rect x="86.884" y="83.508" fill="#ffffff" width="4" height="30.398"/>
				</g>
			</g>
			<g>
				<path fill="#ffffff" d="M100.479,86.107H87.84c-2.276,0-4.128-1.864-4.128-4.156V61.658c0-2.29,1.852-4.154,4.128-4.154h12.639
					c2.274,0,4.125,1.864,4.125,4.154v20.293C104.604,84.243,102.753,86.107,100.479,86.107z M87.84,61.504
					c-0.07,0-0.128,0.069-0.128,0.154v20.293c0,0.086,0.058,0.156,0.128,0.156h12.639c0.061,0,0.125-0.063,0.125-0.156V61.658
					c0-0.092-0.064-0.154-0.125-0.154H87.84z"/>
			</g>
			<g>
				<rect x="92.16" y="75.555" fill="#ffffff" width="4" height="7.213"/>
			</g>
		</g>
	</g>
	<g>
		<rect x="42.213" y="69.279" fill="#ffffff" width="43.572" height="4"/>
	</g>
	<g>
		<path fill="#ffffff" d="M128,116.846H0V26.108h128V116.846z M4,112.846h120V30.108H4V112.846z"/>
	</g>
	<g>
		<polygon fill="#ffffff" points="82.62,21.794 78.62,21.794 78.62,15.154 49.379,15.154 49.379,21.794 45.379,21.794 
			45.379,11.154 82.62,11.154 		"/>
	</g>
</g>
<g>
	<path fill="none" stroke="#ffffff" stroke-width="4" d="M64,64"/>
</g>
</svg>
